<svg xmlns="http://www.w3.org/2000/svg" xmlns:xlink="http://www.w3.org/1999/xlink" version="1.1" width="1000" height="1000" viewBox="0 0 1000 1000" xml:space="preserve">
<desc>Created with Fabric.js 3.5.0</desc>
<defs>
</defs>
<rect x="0" y="0" width="100%" height="100%" fill="#f1b619"/>
<g transform="matrix(2.7219 0 0 4.017 497.0309 499.9946)" id="324642">
<g style="" vector-effect="non-scaling-stroke">
		<g transform="matrix(0.1333 0 0 -0.1333 -15.8945 -9.2816)">
<path style="stroke: none; stroke-width: 1; stroke-dasharray: none; stroke-linecap: butt; stroke-dashoffset: 0; stroke-linejoin: miter; stroke-miterlimit: 4; is-custom-font: none; font-file-url: none; fill: rgb(0,0,0); fill-rule: nonzero; opacity: 1;" transform=" translate(-1255.8726, -984.5087)" d="M 932 1019 l 3 -383 l 55 -32 l 55 -32 l 3 304 c 1 167 4 304 6 304 c 4 0 178 -99 184 -105 c 2 -1 -13 -13 -32 -25 c -36 -22 -36 -22 -36 -95 l 0 -74 l 205 117 l 205 117 l 0 73 c 0 39 -2 72 -4 72 c -3 0 -47 -25 -100 -55 c -52 -30 -98 -55 -101 -55 c -4 0 -223 123 -438 247 c -4 2 -6 -168 -5 -378 z" stroke-linecap="round"/>
</g>
		<g transform="matrix(0.1333 0 0 -0.1333 50.5573 -9.2805)">
<path style="stroke: none; stroke-width: 1; stroke-dasharray: none; stroke-linecap: butt; stroke-dashoffset: 0; stroke-linejoin: miter; stroke-miterlimit: 4; is-custom-font: none; font-file-url: none; fill: rgb(0,0,0); fill-rule: nonzero; opacity: 1;" transform=" translate(-1754.1962, -984.5)" d="M 1753 1364 l -63 -35 l 0 -380 c 0 -208 2 -379 5 -379 c 13 0 117 64 121 74 c 2 6 3 179 2 383 l -3 372 l -62 -35 z" stroke-linecap="round"/>
</g>
		<g transform="matrix(0.1333 0 0 -0.1333 -0.0068 28.6577)">
<path style="stroke: none; stroke-width: 1; stroke-dasharray: none; stroke-linecap: butt; stroke-dashoffset: 0; stroke-linejoin: miter; stroke-miterlimit: 4; is-custom-font: none; font-file-url: none; fill: rgb(0,0,0); fill-rule: nonzero; opacity: 1;" transform=" translate(-1375, -700)" d="M 1373 852 l -203 -116 l 0 -118 l 0 -117 l 61 -36 c 33 -19 62 -35 64 -35 c 2 0 6 53 7 117 l 3 117 l 138 80 l 137 79 l 0 73 c 0 41 -1 74 -2 74 c -2 -1 -94 -53 -205 -118 z" stroke-linecap="round"/>
</g>
</g>
</g>
</svg>